# xmcd
#
# Track frame offsets: 
#        150
#        30503
#        52181
#        90786
#        110575
#        149114
#        174572
#        193312
#        214587
#        236813
#        258863
#        282038
#
# Disc length: 4162 seconds
#
# Revision: 0
# Processed by: cddbd v1.5.1PL0 Copyright (c) Steve Scherf et al.
# Submitted via: ExactAudioCopy v0.95a5
#
DISCID=af10400c
DTITLE=Hot Tuna - 1988-12-30 Fillmore San Francisco, CA
DYEAR=1988
DGENRE=Blues
TTITLE0=I Know You Rider 
TTITLE1=Keep Your Lamps Trimmed And Burning
TTITLE2=See The Light 
TTITLE3=I'll Be All Right Someday 
TTITLE4=Death Don't Have No Mercy 
TTITLE5=Third Week In The Chelsea 
TTITLE6=Another Man Done Gone 
TTITLE7=Too Many Years 
TTITLE8=Rock Me Baby 
TTITLE9=Flying Clouds 
TTITLE10=Genesis 
TTITLE11=Mann's Fate
EXTD=
EXTT0=
EXTT1=
EXTT2=
EXTT3=
EXTT4=
EXTT5=
EXTT6=
EXTT7=
EXTT8=
EXTT9=
EXTT10=
EXTT11=
PLAYORDER=
